<svg id="レイヤー_1" data-name="レイヤー 1" xmlns="http://www.w3.org/2000/svg" viewBox="0 0 396.85 170.08"><defs><style>.cls-1{fill:red;}.cls-2{fill:blue;}.cls-3{fill:#f0f;}.cls-4{fill:lime;}.cls-5{fill:#ff0;}.cls-6{fill:aqua;}.cls-7{fill:#fff;}</style></defs><path class="cls-1" d="M86,60.33,90.51,64a50.49,50.49,0,0,1,48.28-.62L134.45,59l7.89-8-10-5.17,5-10-11.09-1.83L128,22.8l-11.11,1.68L115.06,13.4l-10,5-5.16-10-8,7.9-8-7.9-5.17,10-10-5L66.81,24.48,55.7,22.8l1.68,11.11L46.3,35.74l5,10L41.36,51l7.89,8-7.89,8,1.38.72L50.41,61Z"/><path class="cls-2" d="M64.73,108a50.55,50.55,0,0,1,2.1-14.43l0-.16L55.7,95.09,57.38,84,46.3,82.15l5-10-8.59-4.45L23.55,84.36,18,119.54l18.36,30.51L70,161.62,92.39,153A50.47,50.47,0,0,1,64.73,108Z"/><path class="cls-3" d="M46.3,82.15,57.38,84,55.7,95.09l11.11-1.68,0,.16A50.67,50.67,0,0,1,90.51,64L86,60.33,50.41,61l-7.67,6.68,8.59,4.45Z"/><path class="cls-4" d="M138.79,63.35l3.55,3.59-10,5.17,5,10L126.31,84,128,95.09l-11.11-1.68-.51,3,4.14,21.22-17.24,31.16L92.39,153a50.49,50.49,0,0,0,46.4-89.68Z"/><path class="cls-5" d="M90.51,64l23.2,18.76,2.67,13.73.51-3L128,95.09,126.31,84l11.09-1.84-5-10,10-5.17-3.55-3.59A50.49,50.49,0,0,0,90.51,64Z"/><path class="cls-6" d="M120.52,117.68l-4.14-21.22-1.32,8-10-5-5.16,10-8-7.89-8,7.89-5.17-10-10,5L66.83,93.57A50.51,50.51,0,0,0,92.39,153l10.89-4.19Z"/><path class="cls-7" d="M90.51,64a50.67,50.67,0,0,0-23.68,29.6l1.81,10.93,10-5,5.17,10,8-7.89,8,7.89,5.16-10,10,5,1.32-8-2.67-13.73Z"/><path class="cls-7" d="M377.85,87.25V91.4H192.05V87.25h185.8m1-1H191.05V92.4h187.8V86.25Z"/><polygon class="cls-7" points="205.31 109.16 218.39 109.16 218.39 145.93 224.54 145.93 224.54 109.16 237.68 109.16 237.68 103.58 205.31 103.58 205.31 109.16"/><polygon class="cls-7" points="245.36 145.93 273.46 145.93 273.46 140.34 251.51 140.34 251.51 127.08 273.02 127.08 273.02 121.49 251.51 121.49 251.51 109.16 273.46 109.16 273.46 103.58 245.36 103.58 245.36 145.93"/><path class="cls-7" d="M312.52,135.29a13.44,13.44,0,0,1-11.11,5.79c-8.7,0-15.25-7-15.25-16.3s6.41-16.3,15.25-16.3a13.53,13.53,0,0,1,11.11,5.8l.26.37,5.23-2.91-.33-.45a19.19,19.19,0,0,0-16.27-8.4c-12.31,0-21.58,9.41-21.58,21.89s9.27,21.89,21.58,21.89c6.83,0,12.17-2.74,16.33-8.39l.34-.46-5.3-2.91Z"/><polygon class="cls-7" points="355.6 103.58 355.6 121.37 332.42 121.37 332.42 103.58 326.27 103.58 326.27 145.93 332.42 145.93 332.42 126.96 355.6 126.96 355.6 145.93 361.74 145.93 361.74 103.58 355.6 103.58"/><path class="cls-7" d="M256.14,34.41c12.19,0,20.71,8.31,20.71,20.21s-8.52,20.14-20.71,20.14H242.51V34.41h13.63m-9.49,36.76h9.49c9.79,0,16.37-6.65,16.37-16.55S265.93,38,256.14,38h-9.49V71.17m9.49-37.76H241.51V75.76h14.63c12.78,0,21.71-8.7,21.71-21.14s-8.93-21.21-21.71-21.21Zm-8.49,36.76V39h8.49c9.2,0,15.37,6.27,15.37,15.62s-6.17,15.55-15.37,15.55Z"/><path class="cls-7" d="M314.62,34.41V38H292.67V52.33h21.52v3.58H292.67V71.17h21.95v3.59H288.53V34.41h26.09m1-1H287.53V75.76h28.09V70.17H293.67V56.91h21.52V51.33H293.67V39h21.95V33.41Z"/><path class="cls-7" d="M229.26,34.41v4.14h-5.69V70.61h5.69v4.15H213.73V70.61h5.69V38.55h-5.69V34.41h15.53m1-1H212.73v6.14h5.69V69.61h-5.69v6.15h17.53V69.61h-5.69V39.55h5.69V33.41Z"/><path class="cls-7" d="M346.83,34.41,363.1,74.76h-4.62l-3.41-8.55-.25-.63H333.19l-.25.63-3.41,8.55h-4.62l16.21-40.35h5.71M334.28,62h19.38l-.52-1.36-8.2-21.13h-1.87l-8.25,21.12L334.28,62m13.23-28.59h-7.07l-17,42.35h6.78l3.66-9.18h20.27l3.66,9.18h6.79L347.51,33.41ZM335.75,61l8-20.54h.45l8,20.54Z"/></svg>