<svg xmlns="http://www.w3.org/2000/svg" viewBox="15 8 150 158"><path fill="red" d="M86,60.33,90.51,64a50.49,50.49,0,0,1,48.28-.62L134.45,59l7.89-8-10-5.17,5-10-11.09-1.83L128,22.8l-11.11,1.68L115.06,13.4l-10,5-5.16-10-8,7.9-8-7.9-5.17,10-10-5L66.81,24.48,55.7,22.8l1.68,11.11L46.3,35.74l5,10L41.36,51l7.89,8-7.89,8,1.38.72L50.41,61Z"/><path fill="blue" d="M64.73,108a50.55,50.55,0,0,1,2.1-14.43l0-.16L55.7,95.09,57.38,84,46.3,82.15l5-10-8.59-4.45L23.55,84.36,18,119.54l18.36,30.51L70,161.62,92.39,153A50.47,50.47,0,0,1,64.73,108Z"/><path fill="#f0f" d="M46.3,82.15,57.38,84,55.7,95.09l11.11-1.68,0,.16A50.67,50.67,0,0,1,90.51,64L86,60.33,50.41,61l-7.67,6.68,8.59,4.45Z"/><path fill="lime" d="M138.79,63.35l3.55,3.59-10,5.17,5,10L126.31,84,128,95.09l-11.11-1.68-.51,3,4.14,21.22-17.24,31.16L92.39,153a50.49,50.49,0,0,0,46.4-89.68Z"/><path fill="#ff0" d="M90.51,64l23.2,18.76,2.67,13.73.51-3L128,95.09,126.31,84l11.09-1.84-5-10,10-5.17-3.55-3.59A50.49,50.49,0,0,0,90.51,64Z"/><path fill="aqua" d="M120.52,117.68l-4.14-21.22-1.32,8-10-5-5.16,10-8-7.89-8,7.89-5.17-10-10,5L66.83,93.57A50.51,50.51,0,0,0,92.39,153l10.89-4.19Z"/><path fill="#fff" d="M90.51,64a50.67,50.67,0,0,0-23.68,29.6l1.81,10.93,10-5,5.17,10,8-7.89,8,7.89,5.16-10,10,5,1.32-8-2.67-13.73Z"/></svg>
