<svg id="レイヤー_1" data-name="レイヤー 1" xmlns="http://www.w3.org/2000/svg" viewBox="0 0 751.18 170.08"><defs><style>.cls-1{fill:red;}.cls-2{fill:blue;}.cls-3{fill:#f0f;}.cls-4{fill:lime;}.cls-5{fill:#ff0;}.cls-6{fill:aqua;}.cls-7{fill:#fff;}</style></defs><path class="cls-1" d="M72,64.61l3.72,3a41.74,41.74,0,0,1,39.92-.51L112,63.46l6.52-6.61-8.24-4.27,4.16-8.3-9.17-1.52,1.39-9.18L97.48,35,96,25.8,87.66,30l-4.27-8.25-6.61,6.52-6.62-6.52L65.89,30l-8.3-4.17L56.07,35l-9.18-1.39,1.39,9.18-9.16,1.52,4.16,8.3L35,56.85l6.52,6.61L35,70.08l1.14.59,6.34-5.52Z"/><path class="cls-2" d="M54.35,104a42,42,0,0,1,1.74-11.93l0-.13-9.18,1.39,1.39-9.18-9.16-1.52,4.16-8.3-7.11-3.68L20.3,84.48l-4.58,29.08L30.9,138.79l27.85,9.57,18.47-7.1A41.77,41.77,0,0,1,54.35,104Z"/><path class="cls-3" d="M39.12,82.65l9.16,1.52-1.39,9.18L56.07,92l0,.13A41.88,41.88,0,0,1,75.67,67.62l-3.72-3-29.44.54-6.34,5.52,7.11,3.68Z"/><path class="cls-4" d="M115.59,67.11l2.93,3-8.24,4.27,4.16,8.3-9.17,1.52,1.39,9.18L97.48,92l-.42,2.52L100.49,112,86.23,137.79l-9,3.47a41.75,41.75,0,0,0,38.37-74.15Z"/><path class="cls-5" d="M75.67,67.62,94.85,83.13l2.21,11.35L97.48,92l9.18,1.39-1.39-9.18,9.17-1.52-4.16-8.3,8.24-4.27-2.93-3a41.74,41.74,0,0,0-39.92.51Z"/><path class="cls-6" d="M100.49,112,97.06,94.48,96,101.13,87.66,97l-4.27,8.25-6.61-6.52-6.62,6.52L65.89,97l-8.3,4.17-1.5-9a41.76,41.76,0,0,0,21.13,49.17l9-3.47Z"/><path class="cls-7" d="M75.67,67.62A41.88,41.88,0,0,0,56.09,92.09l1.5,9L65.89,97l4.27,8.25,6.62-6.52,6.61,6.52L87.66,97,96,101.13l1.09-6.65L94.85,83.13Z"/><path d="M253.46,50.17c21.84,0,37.09,14.88,37.09,36.2s-15.25,36.1-37.09,36.1H229V50.17h24.44m-17,65.87h17c17.54,0,29.33-11.92,29.33-29.67S271,56.6,253.46,56.6h-17V116m17-67.67H227.23v75.89h26.23c22.89,0,38.88-15.58,38.88-37.89s-16-38-38.88-38Zm-15.22,65.88V58.39h15.22c16.47,0,27.54,11.24,27.54,28s-11.07,27.88-27.54,27.88Z"/><path d="M358.24,50.17V56.6H318.91V82.27h38.55V88.7H318.91V116h39.33v6.43H311.48V50.17h46.76m1.79-1.8H309.69v75.89H360v-10H320.7V90.49h38.55v-10H320.7V58.39H360v-10Z"/><path d="M416,50.17l29.16,72.3h-8.28l-6.11-15.31-.45-1.13H391.51l-.45,1.13L385,122.47h-8.29l29.05-72.3H416M393.47,99.6H428.2l-.95-2.44L412.56,59.31h-3.34L394.43,97.16l-1,2.44m23.69-51.23H404.51L374,124.26h12.15l6.55-16.44h36.34l6.55,16.44h12.16L417.16,48.37ZM396.1,97.81,410.48,61h.82l14.28,36.8Z"/><polygon points="451.59 57.05 475.03 57.05 475.03 122.93 486.04 122.93 486.04 57.05 509.59 57.05 509.59 47.04 451.59 47.04 451.59 57.05"/><polygon points="525.15 122.93 575.48 122.93 575.48 112.91 536.16 112.91 536.16 89.16 574.7 89.16 574.7 79.14 536.16 79.14 536.16 57.05 575.48 57.05 575.48 47.04 525.15 47.04 525.15 122.93"/><path d="M647.27,103.87a24.09,24.09,0,0,1-19.92,10.38C611.78,114.25,600,101.69,600,85c0-16.93,11.49-29.21,27.32-29.21a24.29,24.29,0,0,1,19.92,10.38l.46.68,9.37-5.21-.58-.82a34.37,34.37,0,0,0-29.17-15c-22,0-38.66,16.86-38.66,39.22s16.62,39.22,38.66,39.22c12.25,0,21.82-4.92,29.27-15l.61-.82-9.5-5.22Z"/><polygon points="724.45 47.04 724.45 78.92 682.92 78.92 682.92 47.04 671.91 47.04 671.91 122.93 682.92 122.93 682.92 88.94 724.45 88.94 724.45 122.93 735.46 122.93 735.46 47.04 724.45 47.04"/><path d="M205.3,50.17v7.42H195.09V115H205.3v7.43H177.46V115h10.21V57.59H177.46V50.17H205.3m1.79-1.8H175.67v11h10.2v53.86h-10.2v11h31.42v-11h-10.2V59.39h10.2v-11Z"/></svg>